<svg version="1.1" id="Layer_1" xmlns="http://www.w3.org/2000/svg" xmlns:xlink="http://www.w3.org/1999/xlink" x="0px" y="0px"
	 width="100%" viewBox="0 0 528 191" enable-background="new 0 0 528 191" xml:space="preserve">
<path fill="#FFFFFF" opacity="1.000000" stroke="none" 
	d="
M369.000000,192.000000 
	C246.000000,192.000000 123.500015,192.000000 1.000016,192.000000 
	C1.000011,128.333344 1.000011,64.666687 1.000005,1.000025 
	C176.999985,1.000017 352.999969,1.000017 529.000000,1.000008 
	C529.000000,64.666641 529.000000,128.333282 529.000000,191.999969 
	C475.833344,192.000000 422.666656,192.000000 369.000000,192.000000 
M261.944580,102.321815 
	C261.302246,101.863739 260.659912,101.405663 259.619202,100.310562 
	C256.232758,95.466049 257.799866,91.079666 263.473602,91.199791 
	C268.702454,91.310516 273.897797,93.003502 279.901031,94.151146 
	C279.901031,92.016571 279.901031,89.503036 279.995148,86.243774 
	C279.361420,85.358444 278.924622,84.081985 278.063446,83.648399 
	C269.606903,79.390640 260.888916,78.861778 252.342972,83.087082 
	C241.485794,88.455139 240.322601,103.297501 250.390488,110.490036 
	C253.753891,112.097664 257.214935,113.532768 260.451660,115.364296 
	C263.348389,117.003471 265.997833,119.079582 268.702240,121.701180 
	C268.452515,126.252396 265.853973,127.760910 261.519470,128.089706 
	C256.299866,128.485641 251.566803,127.886208 247.080673,124.997589 
	C246.233871,124.452332 243.654526,124.893044 243.269806,125.618599 
	C241.167770,129.582901 243.602875,134.966949 248.642349,137.227463 
	C254.364212,137.814316 260.157471,139.274139 265.793671,138.813293 
	C279.116150,137.724045 286.181732,126.711609 281.743774,114.324165 
	C277.279755,106.912727 270.102783,104.162766 262.033722,102.964729 
	C262.033722,102.964729 262.122101,102.925049 261.944580,102.321815 
M310.698425,70.269165 
	C307.363678,65.658333 302.247192,66.765099 298.603302,68.205765 
	C292.534668,70.605110 297.901367,77.115593 295.212677,81.429306 
	C294.203094,81.482758 292.885071,81.692589 291.590515,81.593910 
	C288.180176,81.333961 287.129272,83.420174 287.243713,86.191338 
	C287.365356,89.137146 285.892120,93.113289 291.639343,93.834999 
	C292.087799,93.782928 292.536285,93.730858 293.730377,93.875824 
	C294.532196,94.589188 295.333984,95.302551 295.985168,96.940483 
	C295.991333,105.716560 295.805573,114.498604 296.078461,123.266380 
	C296.232239,128.207153 296.964966,133.207626 302.354370,136.684753 
	C307.466858,137.409363 312.574829,138.656219 317.693237,138.700912 
	C322.155670,138.739883 325.141846,136.222321 324.215271,130.204193 
	C324.052795,128.640076 323.890289,127.075951 323.732239,125.554245 
	C320.398102,125.955849 317.678558,126.283432 314.413574,126.193535 
	C313.262451,124.522118 311.180389,122.885590 311.116211,121.173431 
	C310.781647,112.246147 310.960175,103.299629 310.960175,93.879944 
	C313.409088,93.879944 315.528961,93.896446 317.648499,93.876854 
	C324.090759,93.817291 324.231812,93.658997 324.153259,86.191437 
	C324.478363,82.727531 322.916138,81.293327 319.465179,81.659660 
	C317.322662,81.887100 315.156647,81.893166 312.202942,81.750549 
	C311.662048,78.828384 311.121124,75.906219 310.765686,72.322479 
	C310.703613,71.874413 310.641510,71.426346 310.698425,70.269165 
M179.881622,138.215729 
	C180.710495,138.223068 181.539749,138.250305 182.368179,138.234573 
	C189.116486,138.106461 189.117889,138.104034 189.119690,131.178909 
	C189.121826,122.888794 189.042496,114.597694 189.147171,106.308891 
	C189.227798,99.923470 196.226715,93.483841 201.824768,94.445168 
	C207.847778,95.479469 207.868195,95.479782 207.960938,89.435410 
	C207.983673,87.953186 207.825211,86.468178 207.865814,84.246140 
	C206.586533,80.210739 203.198822,80.098312 199.965256,80.369537 
	C194.359818,80.839706 190.848328,84.465569 187.375046,89.002304 
	C187.200394,87.999542 187.025742,86.996788 186.995605,85.219475 
	C186.150894,79.591240 181.752502,81.332047 178.438675,81.290245 
	C175.220551,81.249664 174.027557,83.092880 174.063034,86.460709 
	C174.227600,102.085915 174.200775,117.714272 174.088806,133.340393 
	C174.062912,136.955063 175.215515,138.703232 179.881622,138.215729 
M412.996460,85.219551 
	C412.163696,79.600922 407.772491,81.328903 404.466125,81.287369 
	C401.291534,81.247498 400.022980,83.016937 400.059662,86.411285 
	C400.228271,101.998825 400.196716,117.589615 400.089233,133.178223 
	C400.064514,136.765381 401.203613,138.584518 405.881256,138.214951 
	C406.710144,138.222031 407.539398,138.248581 408.367859,138.233093 
	C415.116547,138.107010 415.118164,138.104630 415.119812,131.180847 
	C415.121796,122.890678 415.042389,114.599533 415.145935,106.310654 
	C415.225708,99.927032 422.225769,93.482475 427.821716,94.442894 
	C433.842224,95.476181 433.862518,95.476501 433.957245,89.436386 
	C433.980469,87.954117 433.823456,86.469025 433.866577,84.238960 
	C432.717255,83.097839 431.758759,81.352516 430.385956,80.918930 
	C424.035553,78.913200 419.133850,81.500992 413.380432,89.010368 
	C413.204132,88.004951 413.027832,86.999542 412.996460,85.219551 
M117.430695,136.561417 
	C128.201065,142.209610 137.380966,138.649246 145.911224,130.755798 
	C146.049255,132.124802 146.187408,132.629257 146.135574,133.113388 
	C145.548782,138.594803 149.339279,138.354385 152.940689,138.322510 
	C156.490250,138.291092 159.250793,138.079514 159.123535,132.963608 
	C158.734192,117.313278 158.897705,101.649208 158.981049,85.252647 
	C158.574234,84.574974 158.278992,83.788780 157.742523,83.237221 
	C154.232498,79.628517 149.908691,80.744240 146.176590,82.180923 
	C144.875961,82.681618 144.234665,86.214439 144.175476,88.386559 
	C143.948776,96.706993 143.856644,105.045837 144.175720,113.360100 
	C144.331329,117.415222 142.911880,120.150749 140.073502,122.849243 
	C136.800781,125.960663 133.041473,126.201538 128.533157,125.489784 
	C124.936287,123.188675 123.949135,119.665955 123.921822,115.681610 
	C123.853973,105.781975 123.775719,95.882408 123.871613,85.210571 
	C123.018463,84.057564 122.296707,82.066559 121.287598,81.908333 
	C118.234207,81.429596 115.019226,81.328812 111.973846,81.787971 
	C110.830536,81.960358 109.146828,84.063004 109.126244,85.309029 
	C108.934029,96.948112 108.733772,108.605133 109.205902,120.229744 
	C109.454063,126.339813 110.907944,132.459793 117.430695,136.561417 
M485.200470,88.230721 
	C483.247864,86.777924 481.438965,85.058800 479.319550,83.915108 
	C464.392853,75.860298 445.395844,81.769890 440.927917,98.612854 
	C438.747467,106.832680 438.240143,115.144440 441.111206,123.144615 
	C442.450348,126.876122 445.577484,129.965958 448.236420,133.919495 
	C460.344788,141.757782 473.021454,140.156021 485.658295,135.753418 
	C486.935059,135.308578 487.208008,131.982407 488.136902,129.131363 
	C487.993835,127.723114 487.850769,126.314865 487.640503,124.245331 
	C478.562073,126.881790 470.011688,129.820099 460.623596,126.361496 
	C455.785736,123.719078 454.476349,119.397469 454.666962,113.821213 
	C456.492676,113.821213 458.126678,113.826820 459.760620,113.820274 
	C468.064484,113.786987 476.368317,113.735809 484.672211,113.722679 
	C487.868988,113.717628 490.402039,112.708344 490.552460,109.112755 
	C490.853851,101.908791 490.371826,94.834251 485.200470,88.230721 
M342.287567,134.697830 
	C355.666382,142.298157 373.386047,140.328262 381.623505,130.324814 
	C390.305847,119.781197 390.548676,99.098137 381.924286,88.286369 
	C379.430695,86.792336 376.868408,85.401009 374.455139,83.786896 
	C362.509613,75.797218 341.909576,81.221390 335.678375,94.096840 
	C330.840881,104.092476 330.951965,114.507866 334.486176,124.669792 
	C335.728790,128.242706 339.408173,130.968140 342.287567,134.697830 
M83.815819,67.194557 
	C81.770638,65.974220 79.849747,64.428276 77.658081,63.591705 
	C69.541542,60.493572 61.054008,60.083267 52.611977,61.516781 
	C40.741196,63.532520 32.477688,70.285599 27.945044,81.590347 
	C23.904282,91.668289 24.035908,102.189095 25.371620,112.537682 
	C26.205965,119.001884 28.135994,125.714561 34.200699,130.738541 
	C44.430168,140.140869 56.792614,140.127792 69.352356,138.318130 
	C78.952477,136.934875 86.585686,131.834671 90.890205,123.110519 
	C98.432564,107.824120 98.536438,92.025177 91.733215,76.473526 
	C90.269760,73.128166 86.673485,70.715836 83.815819,67.194557 
z"/>
<path fill="#385524" opacity="1.000000" stroke="none" 
	d="
M84.059677,67.873711 
	C86.673485,70.715836 90.269760,73.128166 91.733215,76.473526 
	C98.536438,92.025177 98.432564,107.824120 90.890205,123.110519 
	C86.585686,131.834671 78.952477,136.934875 69.352356,138.318130 
	C56.792614,140.127792 44.430168,140.140869 34.084354,130.025757 
	C33.602463,127.872772 33.385311,126.374481 32.847710,125.001671 
	C28.817093,114.709061 27.929022,104.182472 29.987389,93.315651 
	C34.110687,71.547325 50.470242,62.511520 71.443527,65.689705 
	C75.662346,66.329002 79.854973,67.141220 84.059677,67.873711 
M75.929298,80.715736 
	C73.058380,76.747040 69.261627,74.386795 64.328003,73.885300 
	C51.589100,72.590401 43.721581,78.083275 41.826378,90.790436 
	C40.076160,102.525475 39.298847,114.414848 49.087372,124.525558 
	C49.501457,125.212387 49.749668,126.152473 50.354248,126.548462 
	C61.264320,133.694305 75.515724,132.603714 81.946175,118.563026 
	C86.005608,109.699387 84.159988,100.189331 83.436340,91.095901 
	C83.171631,87.769547 82.525620,81.714912 75.929298,80.715736 
z"/>
<path fill="#385524" opacity="1.000000" stroke="none" 
	d="
M382.109131,88.964127 
	C390.548676,99.098137 390.305847,119.781197 381.623505,130.324814 
	C373.386047,140.328262 355.666382,142.298157 342.102173,134.020874 
	C337.384338,125.624474 336.231506,117.206787 337.030975,108.472885 
	C338.219025,95.493591 347.228058,85.790077 361.078766,84.879524 
	C368.602631,84.384903 375.242584,86.895836 382.109131,88.964127 
M355.089783,127.580772 
	C357.881348,132.885773 362.969299,131.213287 367.003418,130.770218 
	C371.710083,130.253281 375.306732,126.635788 375.848267,121.935577 
	C376.554779,115.803535 376.434082,109.490974 375.815948,103.341881 
	C375.622833,101.420395 372.668274,99.776497 370.431244,97.603172 
	C367.127441,90.629463 356.040100,90.640251 351.503174,95.613930 
	C344.597321,103.184555 346.633179,121.235062 355.089783,127.580772 
z"/>
<path fill="#395626" opacity="1.000000" stroke="none" 
	d="
M487.946808,129.993393 
	C487.208008,131.982407 486.935059,135.308578 485.658295,135.753418 
	C473.021454,140.156021 460.344788,141.757782 448.068359,133.234375 
	C445.178650,125.397400 443.654114,118.115189 443.919830,110.341789 
	C444.379852,96.884544 454.158508,83.261093 469.484314,85.103493 
	C474.907166,85.755417 480.188538,87.584045 485.534515,88.875458 
	C490.371826,94.834251 490.853851,101.908791 490.552460,109.112755 
	C490.402039,112.708344 487.868988,113.717628 484.672211,113.722679 
	C476.368317,113.735809 468.064484,113.786987 459.760620,113.820274 
	C458.126678,113.826820 456.492676,113.821213 454.666962,113.821213 
	C454.476349,119.397469 455.785736,123.719078 460.849854,127.008217 
	C462.522583,131.533066 466.024048,132.064743 469.273163,131.900604 
	C475.513885,131.585327 481.723999,130.663574 487.946808,129.993393 
M458.112549,104.893082 
	C463.341797,109.352859 469.326080,108.455513 475.225769,107.020592 
	C476.865265,106.621826 479.514526,104.867485 479.425446,103.957840 
	C479.206329,101.720573 479.860931,98.201103 475.339539,97.527245 
	C472.565857,92.030106 468.862640,90.028671 463.392151,91.070137 
	C458.105316,92.076637 455.160614,96.255814 454.721039,103.600571 
	C455.801971,103.783875 456.909027,103.971611 458.112549,104.893082 
z"/>
<path fill="#385524" opacity="1.000000" stroke="none" 
	d="
M123.701645,85.982819 
	C123.775719,95.882408 123.853973,105.781975 123.921822,115.681610 
	C123.949135,119.665955 124.936287,123.188675 128.803497,126.107254 
	C130.368744,127.856911 131.482681,129.455826 132.989990,130.040253 
	C139.412079,132.530273 148.856888,125.084885 148.970383,117.453796 
	C149.098480,108.840958 149.122040,100.222313 148.945648,91.611214 
	C148.870895,87.961823 150.731400,86.489403 153.881409,86.072487 
	C155.511398,85.856758 157.189697,86.006081 158.846176,85.990479 
	C158.897705,101.649208 158.734192,117.313278 159.123535,132.963608 
	C159.250793,138.079514 156.490250,138.291092 152.940689,138.322510 
	C149.339279,138.354385 145.548782,138.594803 146.135574,133.113388 
	C146.187408,132.629257 146.049255,132.124802 145.911224,130.755798 
	C137.380966,138.649246 128.201065,142.209610 117.209961,135.870789 
	C113.748100,128.362503 113.813408,121.101517 113.964966,113.785263 
	C114.116394,106.475739 114.207314,99.152420 113.920464,91.851036 
	C113.747169,87.439972 115.516251,85.734543 119.713860,85.988335 
	C121.038170,86.068398 122.372108,85.989151 123.701645,85.982819 
z"/>
<path fill="#3B5727" opacity="1.000000" stroke="none" 
	d="
M296.135773,96.015915 
	C295.333984,95.302551 294.532196,94.589188 293.356415,93.362152 
	C292.990753,90.900673 292.999054,88.952866 293.253754,87.001556 
	C293.500183,86.998062 293.993073,86.992027 294.314545,86.955704 
	C295.097137,86.285706 295.558228,85.652023 296.339172,84.989891 
	C297.442993,84.311615 298.226990,83.661781 299.392456,82.926620 
	C300.184052,81.382927 300.936035,79.925133 300.938477,78.466087 
	C300.945129,74.495293 302.813690,72.804008 306.670349,72.991402 
	C307.970459,73.054573 309.276733,72.990158 310.580200,72.984055 
	C311.121124,75.906219 311.662048,78.828384 312.640625,82.239944 
	C315.416168,87.486900 319.965942,86.582771 324.000824,86.996506 
	C324.231812,93.658997 324.090759,93.817291 317.648499,93.876854 
	C315.528961,93.896446 313.409088,93.879944 310.960175,93.879944 
	C310.960175,103.299629 310.781647,112.246147 311.116211,121.173431 
	C311.180389,122.885590 313.262451,124.522118 314.722168,126.805305 
	C316.493958,132.471069 320.699341,130.640656 324.031555,131.002304 
	C325.141846,136.222321 322.155670,138.739883 317.693237,138.700912 
	C312.574829,138.656219 307.466858,137.409363 302.165771,135.938995 
	C301.652344,133.249847 301.124908,131.315521 301.037323,129.361481 
	C300.627197,120.210556 300.277710,111.055771 300.041290,101.898880 
	C299.966339,98.995415 299.552185,96.578575 296.135773,96.015915 
z"/>
<path fill="#395525" opacity="1.000000" stroke="none" 
	d="
M268.756409,120.962906 
	C265.997833,119.079582 263.348389,117.003471 260.451660,115.364296 
	C257.214935,113.532768 253.753891,112.097664 250.186752,109.801491 
	C249.844025,108.467766 249.796051,107.785797 249.552368,107.182915 
	C245.871719,98.076370 248.861984,90.862984 257.767456,86.888916 
	C265.209564,83.567863 272.535248,84.524635 279.901031,86.989502 
	C279.901031,89.503036 279.901031,92.016571 279.901031,94.151146 
	C273.897797,93.003502 268.702454,91.310516 263.473602,91.199791 
	C257.799866,91.079666 256.232758,95.466049 259.857880,100.963181 
	C260.771729,102.052216 261.446930,102.488632 262.122101,102.925049 
	C262.122101,102.925049 262.033722,102.964729 262.063995,103.286621 
	C262.883118,104.619019 263.460968,106.040779 264.495880,106.571709 
	C270.203491,109.499870 276.022614,112.210594 281.803528,114.995872 
	C286.181732,126.711609 279.116150,137.724045 265.793671,138.813293 
	C260.157471,139.274139 254.364212,137.814316 248.313019,136.586884 
	C247.983688,134.179337 247.983688,132.412338 247.983688,129.699066 
	C250.873596,130.251648 253.096512,130.415527 255.133072,131.118958 
	C259.771423,132.721054 264.494720,133.588181 268.807404,130.906464 
	C270.634155,129.770538 272.229889,127.253532 272.573547,125.143227 
	C272.761719,123.987640 270.121307,122.371414 268.756409,120.962906 
z"/>
<path fill="#385524" opacity="1.000000" stroke="none" 
	d="
M433.749268,84.985229 
	C433.823456,86.469025 433.980469,87.954117 433.957245,89.436386 
	C433.862518,95.476501 433.842224,95.476181 427.821716,94.442894 
	C422.225769,93.482475 415.225708,99.927032 415.145935,106.310654 
	C415.042389,114.599533 415.121796,122.890678 415.119812,131.180847 
	C415.118164,138.104630 415.116547,138.107010 408.367859,138.233093 
	C407.539398,138.248581 406.710144,138.222031 405.441833,137.636505 
	C405.002441,122.668930 404.999725,108.279816 405.003540,93.890701 
	C405.005524,86.403931 405.356842,86.055717 412.851532,85.994125 
	C413.027832,86.999542 413.204132,88.004951 414.114899,89.049393 
	C416.860291,89.260025 419.734589,90.361557 420.729004,89.438293 
	C424.534729,85.904976 428.668121,84.317528 433.749268,84.985229 
z"/>
<path fill="#385524" opacity="1.000000" stroke="none" 
	d="
M207.750046,84.984451 
	C207.825211,86.468178 207.983673,87.953186 207.960938,89.435410 
	C207.868195,95.479782 207.847778,95.479469 201.824768,94.445168 
	C196.226715,93.483841 189.227798,99.923470 189.147171,106.308891 
	C189.042496,114.597694 189.121826,122.888794 189.119690,131.178909 
	C189.117889,138.104034 189.116486,138.106461 182.368179,138.234573 
	C181.539749,138.250305 180.710495,138.223068 179.442291,137.637100 
	C179.002777,122.590118 178.998764,108.121758 179.004150,93.653404 
	C179.006668,86.884537 179.725082,86.191467 186.851089,85.994026 
	C187.025742,86.996788 187.200394,87.999542 188.066437,89.186119 
	C190.790222,89.455292 193.837265,90.431221 194.679352,89.471825 
	C198.321564,85.322128 202.735626,84.542252 207.750046,84.984451 
z"/>
<path fill="#2A3E1D" opacity="1.000000" stroke="none" 
	d="
M83.937744,67.534134 
	C79.854973,67.141220 75.662346,66.329002 71.443527,65.689705 
	C50.470242,62.511520 34.110687,71.547325 29.987389,93.315651 
	C27.929022,104.182472 28.817093,114.709061 32.847710,125.001671 
	C33.385311,126.374481 33.602463,127.872772 33.968491,129.709900 
	C28.135994,125.714561 26.205965,119.001884 25.371620,112.537682 
	C24.035908,102.189095 23.904282,91.668289 27.945044,81.590347 
	C32.477688,70.285599 40.741196,63.532520 52.611977,61.516781 
	C61.054008,60.083267 69.541542,60.493572 77.658081,63.591705 
	C79.849747,64.428276 81.770638,65.974220 83.937744,67.534134 
z"/>
<path fill="#2E4120" opacity="1.000000" stroke="none" 
	d="
M382.016724,88.625244 
	C375.242584,86.895836 368.602631,84.384903 361.078766,84.879524 
	C347.228058,85.790077 338.219025,95.493591 337.030975,108.472885 
	C336.231506,117.206787 337.384338,125.624474 341.945801,133.712219 
	C339.408173,130.968140 335.728790,128.242706 334.486176,124.669792 
	C330.951965,114.507866 330.840881,104.092476 335.678375,94.096840 
	C341.909576,81.221390 362.509613,75.797218 374.455139,83.786896 
	C376.868408,85.401009 379.430695,86.792336 382.016724,88.625244 
z"/>
<path fill="#2C3F1E" opacity="1.000000" stroke="none" 
	d="
M485.367493,88.553085 
	C480.188538,87.584045 474.907166,85.755417 469.484314,85.103493 
	C454.158508,83.261093 444.379852,96.884544 443.919830,110.341789 
	C443.654114,118.115189 445.178650,125.397400 447.897247,132.947937 
	C445.577484,129.965958 442.450348,126.876122 441.111206,123.144615 
	C438.240143,115.144440 438.747467,106.832680 440.927917,98.612854 
	C445.395844,81.769890 464.392853,75.860298 479.319550,83.915108 
	C481.438965,85.058800 483.247864,86.777924 485.367493,88.553085 
z"/>
<path fill="#2F4321" opacity="1.000000" stroke="none" 
	d="
M158.913605,85.621567 
	C157.189697,86.006081 155.511398,85.856758 153.881409,86.072487 
	C150.731400,86.489403 148.870895,87.961823 148.945648,91.611214 
	C149.122040,100.222313 149.098480,108.840958 148.970383,117.453796 
	C148.856888,125.084885 139.412079,132.530273 132.989990,130.040253 
	C131.482681,129.455826 130.368744,127.856911 129.036819,126.364990 
	C133.041473,126.201538 136.800781,125.960663 140.073502,122.849243 
	C142.911880,120.150749 144.331329,117.415222 144.175720,113.360100 
	C143.856644,105.045837 143.948776,96.706993 144.175476,88.386559 
	C144.234665,86.214439 144.875961,82.681618 146.176590,82.180923 
	C149.908691,80.744240 154.232498,79.628517 157.742523,83.237221 
	C158.278992,83.788780 158.574234,84.574974 158.913605,85.621567 
z"/>
<path fill="#324625" opacity="1.000000" stroke="none" 
	d="
M186.923340,85.606750 
	C179.725082,86.191467 179.006668,86.884537 179.004150,93.653404 
	C178.998764,108.121758 179.002777,122.590118 179.001083,137.526794 
	C175.215515,138.703232 174.062912,136.955063 174.088806,133.340393 
	C174.200775,117.714272 174.227600,102.085915 174.063034,86.460709 
	C174.027557,83.092880 175.220551,81.249664 178.438675,81.290245 
	C181.752502,81.332047 186.150894,79.591240 186.923340,85.606750 
z"/>
<path fill="#334625" opacity="1.000000" stroke="none" 
	d="
M412.924011,85.606842 
	C405.356842,86.055717 405.005524,86.403931 405.003540,93.890701 
	C404.999725,108.279816 405.002441,122.668930 405.000549,137.526352 
	C401.203613,138.584518 400.064514,136.765381 400.089233,133.178223 
	C400.196716,117.589615 400.228271,101.998825 400.059662,86.411285 
	C400.022980,83.016937 401.291534,81.247498 404.466125,81.287369 
	C407.772491,81.328903 412.163696,79.600922 412.924011,85.606842 
z"/>
<path fill="#2C401F" opacity="1.000000" stroke="none" 
	d="
M123.786629,85.596695 
	C122.372108,85.989151 121.038170,86.068398 119.713860,85.988335 
	C115.516251,85.734543 113.747169,87.439972 113.920464,91.851036 
	C114.207314,99.152420 114.116394,106.475739 113.964966,113.785263 
	C113.813408,121.101517 113.748100,128.362503 117.002228,135.564850 
	C110.907944,132.459793 109.454063,126.339813 109.205902,120.229744 
	C108.733772,108.605133 108.934029,96.948112 109.126244,85.309029 
	C109.146828,84.063004 110.830536,81.960358 111.973846,81.787971 
	C115.019226,81.328812 118.234207,81.429596 121.287598,81.908333 
	C122.296707,82.066559 123.018463,84.057564 123.786629,85.596695 
z"/>
<path fill="#2C3F1E" opacity="1.000000" stroke="none" 
	d="
M279.948090,86.616638 
	C272.535248,84.524635 265.209564,83.567863 257.767456,86.888916 
	C248.861984,90.862984 245.871719,98.076370 249.552368,107.182915 
	C249.796051,107.785797 249.844025,108.467766 250.006119,109.501907 
	C240.322601,103.297501 241.485794,88.455139 252.342972,83.087082 
	C260.888916,78.861778 269.606903,79.390640 278.063446,83.648399 
	C278.924622,84.081985 279.361420,85.358444 279.948090,86.616638 
z"/>
<path fill="#293E1A" opacity="1.000000" stroke="none" 
	d="
M268.729309,121.332039 
	C270.121307,122.371414 272.761719,123.987640 272.573547,125.143227 
	C272.229889,127.253532 270.634155,129.770538 268.807404,130.906464 
	C264.494720,133.588181 259.771423,132.721054 255.133072,131.118958 
	C253.096512,130.415527 250.873596,130.251648 247.983688,129.699066 
	C247.983688,132.412338 247.983688,134.179337 247.983398,136.374512 
	C243.602875,134.966949 241.167770,129.582901 243.269806,125.618599 
	C243.654526,124.893044 246.233871,124.452332 247.080673,124.997589 
	C251.566803,127.886208 256.299866,128.485641 261.519470,128.089706 
	C265.853973,127.760910 268.452515,126.252396 268.729309,121.332039 
z"/>
<path fill="#283B1B" opacity="1.000000" stroke="none" 
	d="
M299.010986,83.011948 
	C298.226990,83.661781 297.442993,84.311615 296.015747,85.023087 
	C294.912689,85.720505 294.452881,86.356262 293.993073,86.992020 
	C293.993073,86.992027 293.500183,86.998062 292.881561,87.072754 
	C291.835938,89.315903 291.408966,91.484352 290.981964,93.652802 
	C285.892120,93.113289 287.365356,89.137146 287.243713,86.191338 
	C287.129272,83.420174 288.180176,81.333961 291.590515,81.593910 
	C292.885071,81.692589 294.203094,81.482758 295.212677,81.429306 
	C297.901367,77.115593 292.534668,70.605110 298.603302,68.205765 
	C302.247192,66.765099 307.363678,65.658333 310.220764,70.625999 
	C299.777008,71.036385 298.987427,71.848221 299.002258,82.027908 
	C299.002747,82.355927 299.007996,82.683937 299.010986,83.011948 
z"/>
<path fill="#293D1A" opacity="1.000000" stroke="none" 
	d="
M296.060486,96.478203 
	C299.552185,96.578575 299.966339,98.995415 300.041290,101.898880 
	C300.277710,111.055771 300.627197,120.210556 301.037323,129.361481 
	C301.124908,131.315521 301.652344,133.249847 301.992554,135.611877 
	C296.964966,133.207626 296.232239,128.207153 296.078461,123.266380 
	C295.805573,114.498604 295.991333,105.716560 296.060486,96.478203 
z"/>
<path fill="#2C411E" opacity="1.000000" stroke="none" 
	d="
M488.041870,129.562378 
	C481.723999,130.663574 475.513885,131.585327 469.273163,131.900604 
	C466.024048,132.064743 462.522583,131.533066 461.050812,127.284225 
	C470.011688,129.820099 478.562073,126.881790 487.640503,124.245331 
	C487.850769,126.314865 487.993835,127.723114 488.041870,129.562378 
z"/>
<path fill="#2B3F1D" opacity="1.000000" stroke="none" 
	d="
M207.807922,84.615295 
	C202.735626,84.542252 198.321564,85.322128 194.679352,89.471825 
	C193.837265,90.431221 190.790222,89.455292 188.452698,89.210266 
	C190.848328,84.465569 194.359818,80.839706 199.965256,80.369537 
	C203.198822,80.098312 206.586533,80.210739 207.807922,84.615295 
z"/>
<path fill="#2C3F1E" opacity="1.000000" stroke="none" 
	d="
M433.807922,84.612091 
	C428.668121,84.317528 424.534729,85.904976 420.729004,89.438293 
	C419.734589,90.361557 416.860291,89.260025 414.502960,89.062607 
	C419.133850,81.500992 424.035553,78.913200 430.385956,80.918930 
	C431.758759,81.352516 432.717255,83.097839 433.807922,84.612091 
z"/>
<path fill="#354C25" opacity="1.000000" stroke="none" 
	d="
M281.773651,114.660019 
	C276.022614,112.210594 270.203491,109.499870 264.495880,106.571709 
	C263.460968,106.040779 262.883118,104.619019 262.084106,103.242554 
	C270.102783,104.162766 277.279755,106.912727 281.773651,114.660019 
z"/>
<path fill="#2C411E" opacity="1.000000" stroke="none" 
	d="
M324.077026,86.593971 
	C319.965942,86.582771 315.416168,87.486900 313.039734,82.363968 
	C315.156647,81.893166 317.322662,81.887100 319.465179,81.659660 
	C322.916138,81.293327 324.478363,82.727531 324.077026,86.593971 
z"/>
<path fill="#2E441F" opacity="1.000000" stroke="none" 
	d="
M324.123413,130.603241 
	C320.699341,130.640656 316.493958,132.471069 314.994904,127.014038 
	C317.678558,126.283432 320.398102,125.955849 323.732239,125.554245 
	C323.890289,127.075951 324.052795,128.640076 324.123413,130.603241 
z"/>
<path fill="#2F481D" opacity="1.000000" stroke="none" 
	d="
M299.392456,82.926620 
	C299.007996,82.683937 299.002747,82.355927 299.002258,82.027908 
	C298.987427,71.848221 299.777008,71.036385 310.161255,70.980560 
	C310.641510,71.426346 310.703613,71.874413 310.672943,72.653267 
	C309.276733,72.990158 307.970459,73.054573 306.670349,72.991402 
	C302.813690,72.804008 300.945129,74.495293 300.938477,78.466087 
	C300.936035,79.925133 300.184052,81.382927 299.392456,82.926620 
z"/>
<path fill="#2F481D" opacity="1.000000" stroke="none" 
	d="
M291.310669,93.743896 
	C291.408966,91.484352 291.835938,89.315903 292.635132,87.076256 
	C292.999054,88.952866 292.990753,90.900673 292.983582,93.263634 
	C292.536285,93.730858 292.087799,93.782928 291.310669,93.743896 
z"/>
<path fill="#354C25" opacity="1.000000" stroke="none" 
	d="
M262.033325,102.623428 
	C261.446930,102.488632 260.771729,102.052216 260.057068,101.281693 
	C260.659912,101.405663 261.302246,101.863739 262.033325,102.623428 
z"/>
<path fill="#FEFEFE" opacity="1.000000" stroke="none" 
	d="
M49.068012,123.789581 
	C39.298847,114.414848 40.076160,102.525475 41.826378,90.790436 
	C43.721581,78.083275 51.589100,72.590401 64.328003,73.885300 
	C69.261627,74.386795 73.058380,76.747040 76.324020,81.291885 
	C80.428284,89.795296 80.777237,98.229820 79.778816,106.651314 
	C77.529358,125.625107 64.094185,129.706055 49.068012,123.789581 
z"/>
<path fill="#2B3F1D" opacity="1.000000" stroke="none" 
	d="
M49.077690,124.157570 
	C64.094185,129.706055 77.529358,125.625107 79.778816,106.651314 
	C80.777237,98.229820 80.428284,89.795296 76.560196,81.500542 
	C82.525620,81.714912 83.171631,87.769547 83.436340,91.095901 
	C84.159988,100.189331 86.005608,109.699387 81.946175,118.563026 
	C75.515724,132.603714 61.264320,133.694305 50.354248,126.548462 
	C49.749668,126.152473 49.501457,125.212387 49.077690,124.157570 
z"/>
<path fill="#FCFCFC" opacity="1.000000" stroke="none" 
	d="
M355.058105,126.811241 
	C346.633179,121.235062 344.597321,103.184555 351.503174,95.613930 
	C356.040100,90.640251 367.127441,90.629463 370.711243,98.207001 
	C371.584534,101.001427 372.309113,103.165970 372.749939,105.386826 
	C375.627350,119.883080 369.135956,127.715797 355.058105,126.811241 
z"/>
<path fill="#2A3E1C" opacity="1.000000" stroke="none" 
	d="
M355.073944,127.196007 
	C369.135956,127.715797 375.627350,119.883080 372.749939,105.386826 
	C372.309113,103.165970 371.584534,101.001427 370.984497,98.408188 
	C372.668274,99.776497 375.622833,101.420395 375.815948,103.341881 
	C376.434082,109.490974 376.554779,115.803535 375.848267,121.935577 
	C375.306732,126.635788 371.710083,130.253281 367.003418,130.770218 
	C362.969299,131.213287 357.881348,132.885773 355.073944,127.196007 
z"/>
<path fill="#FCFCFC" opacity="1.000000" stroke="none" 
	d="
M458.016083,104.159340 
	C456.909027,103.971611 455.801971,103.783875 454.721039,103.600571 
	C455.160614,96.255814 458.105316,92.076637 463.392151,91.070137 
	C468.862640,90.028671 472.565857,92.030106 475.620300,98.199471 
	C475.901062,100.458405 475.901062,102.045113 475.901062,104.159340 
	C469.751648,104.159340 463.883850,104.159340 458.016083,104.159340 
z"/>
<path fill="#263B18" opacity="1.000000" stroke="none" 
	d="
M458.064331,104.526215 
	C463.883850,104.159340 469.751648,104.159340 475.901062,104.159340 
	C475.901062,102.045113 475.901062,100.458405 475.876190,98.420593 
	C479.860931,98.201103 479.206329,101.720573 479.425446,103.957840 
	C479.514526,104.867485 476.865265,106.621826 475.225769,107.020592 
	C469.326080,108.455513 463.341797,109.352859 458.064331,104.526215 
z"/>
<path fill="#2F481D" opacity="1.000000" stroke="none" 
	d="
M294.314545,86.955704 
	C294.452881,86.356262 294.912689,85.720505 295.695923,85.051544 
	C295.558228,85.652023 295.097137,86.285706 294.314545,86.955704 
z"/>
</svg>